PathFileType	4	(X/Y/Z)	C:\Users\WrightLab\Desktop\Jo\P1_boxCal3.trc
DataRate	CameraRate	NumFrames	NumMarkers	Units	OrigDataRate	OrigDataStartFrame	OrigNumFrames
100.00	100.00	       8	19	mm	100.00	601	       960
Frame#	Time	Headset_Front			Headset_Back			Headset_Left			Headset_Right			Left_Shoulder			Right_Shoulder			Sternum			C7			Left Elbow			Right Elbow			Left Wrist			Right Wrist			Left ASIS			Right ASIS			S2			Left Knee			Right Knee			Left Ankle			Right Ankle			
		X1	Y1	Z1	X2	Y2	Z2	X3	Y3	Z3	X4	Y4	Z4	X5	Y5	Z5	X6	Y6	Z6	X7	Y7	Z7	X8	Y8	Z8	X9	Y9	Z9	X10	Y10	Z10	X11	Y11	Z11	X12	Y12	Z12	X13	Y13	Z13	X14	Y14	Z14	X15	Y15	Z15	X16	Y16	Z16	X17	Y17	Z17	X18	Y18	Z18	X19	Y19	Z19	

601	6.000	-362.77460	1443.26257	1912.39966				-160.76060	1486.20947	1884.36011				-31.71188	1307.96130	1882.32935				-280.76260	1201.06030	1892.17554							-349.94012	1014.96259	1572.65723	58.99711	812.42804	2053.96631	-427.56458	784.63361	1545.67432	-170.14722	925.41040	1978.47473	-343.89139	911.39178	1877.76013	-100.80145	910.30438	1662.50281	22.62859	482.73257	1837.27295	-354.39087	483.39905	1869.79443	103.94267	171.26115	1656.40503	-355.74081	128.42049	1953.09009	
602	6.010	-369.26620	1445.43591	1917.86914				-166.63568	1486.92737	1890.55554				-38.15017	1308.66699	1889.44641	-355.41208	1285.05164	1684.01294	-287.33582	1202.00757	1897.78723							-353.72156	1015.08466	1578.86096	50.24575	811.60034	2056.98755	-432.75226	784.17297	1552.45947	-176.02324	925.99597	1985.78760	-349.73184	912.78021	1886.14331	-106.42466	909.19232	1671.11499	17.09010	483.15601	1850.19263	-360.64545	483.27557	1876.87317	103.02224	176.55072	1663.23657	-360.06714	126.55301	1954.65112	
603	6.020	-375.36313	1447.54785	1923.00305				-173.10278	1488.35559	1896.33679				-44.80312	1309.54626	1896.19885	-361.39093	1285.63708	1688.82788	-294.28931	1204.37537	1906.43848							-358.71698	1015.18726	1585.07019	41.65294	810.69116	2061.37256	-438.19263	784.15918	1559.84204	-183.55078	928.75183	1993.38281	-356.64359	913.65967	1893.16089	-111.84413	910.40472	1677.30664	10.67554	483.02768	1864.16699	-367.20471	484.63843	1882.99548	101.21947	182.60698	1670.33899	-364.09485	123.81319	1957.29468	
604	6.030	-381.82892	1449.79431	1928.43665				-178.76726	1489.52075	1902.85986				-51.15607	1311.23975	1903.41162	-367.42255	1286.12500	1695.55554	-301.02728	1205.70032	1911.14380							-363.74249	1015.72186	1591.30054	33.00864	810.57739	2063.81812	-443.06720	784.58392	1565.57886	-189.80418	931.05011	2001.63062	-363.19360	916.64679	1901.90979	-118.19079	911.32428	1684.67712	4.90010	482.99234	1880.26709	-374.23477	486.35333	1889.61365	98.84557	188.34668	1679.41077	-366.64816	122.27102	1960.96155	
605	6.040							-185.10458	1490.92920	1908.48071	-314.35187	124.75518	2056.00879	-57.66886	1312.94482	1909.81384	-372.83490	1287.24304	1700.87939	-307.14343	1207.33838	1917.96277							-369.19373	1017.06750	1598.93164	24.57899	810.48157	2066.52466	-449.16748	785.30609	1572.96509	-196.95120	932.93951	2008.23669	-370.26553	917.27094	1908.51025	-123.91339	910.32172	1691.92798	-3.24165	483.24850	1896.20984	-380.62479	489.06442	1894.96802	96.14570	194.11816	1691.04578	-367.98880	120.77113	1963.09033	
606	6.050							-191.35893	1492.19348	1914.38037	-315.01050	124.11026	2057.05933	-63.98940	1314.50195	1916.45374	-375.46783	1286.32422	1700.33655	-313.45297	1209.45789	1923.95825							-375.52325	1017.46814	1607.84167	16.59200	810.89191	2070.09009	-454.87070	786.05444	1580.95227	-203.27937	935.64026	2015.40808	-377.00586	920.34888	1916.46008	-129.65799	911.77222	1700.00757	-10.73105	481.97385	1911.91260	-387.34592	491.28806	1900.63208	91.99702	199.72527	1702.54419	-368.12000	119.43382	1963.00452	
607	6.060							-197.81659	1493.53821	1920.70801	-315.17432	123.72476	2056.66064	-70.17947	1316.97839	1923.69739	-383.54135	1289.91162	1712.83667	-319.52469	1211.09814	1930.28809							-381.44070	1018.50922	1614.95349	9.18348	811.84711	2074.68359	-462.13867	787.27740	1591.09924	-211.08003	937.89380	2022.23218	-383.61011	922.68927	1922.46826	-134.81374	913.53522	1707.33679	-18.00348	481.19165	1929.38647	-393.15894	493.70694	1905.97253	87.64014	206.22551	1711.61975	-368.11270	119.18506	1963.20520	
608	6.070							-203.61148	1494.47217	1925.94556	-315.24179	123.55936	2056.49976	-76.01479	1318.29309	1931.01270	-388.60147	1291.32910	1719.84387	-325.30112	1212.54016	1936.59546							-387.38104	1020.25220	1619.79480	1.70963	812.80402	2078.77441	-469.14905	788.63745	1599.81750	-217.26630	940.42340	2028.06287	-390.34515	924.12848	1928.05396	-139.88377	915.09161	1714.56897	-24.76833	483.52353	1949.31970	-398.40128	495.49292	1910.41370	82.93523	212.74576	1725.40112	-368.45544	119.59067	1962.66699	
